<svg width="179" height="64" viewBox="0 0 179 64" fill="none" xmlns="http://www.w3.org/2000/svg">
<rect y="14.2616" width="21.286" height="21.286" fill="#FF7070"/>
<rect x="9.93262" y="28.4523" width="21.286" height="21.286" fill="#1D2129"/>
<path d="M75.7099 17.2302L70.588 20.4543C69.902 19.3796 69.3075 18.6021 68.8045 18.0991C68.0042 17.2759 66.9752 16.8643 65.7633 16.8643C64.5057 16.8643 63.5224 17.2759 62.8136 18.0762C62.242 18.7622 61.9447 19.5168 61.9447 20.3399C61.9447 21.6204 63.0651 22.6723 65.306 23.5183L68.1871 24.6159C71.434 25.8277 73.6292 27.3598 74.7953 29.189C75.5956 30.4924 76.0072 31.9329 76.0072 33.5564C76.0072 36.5061 74.8868 38.9985 72.6459 40.9878C70.588 42.8171 68.0956 43.7317 65.1688 43.7317C62.7679 43.7317 60.6642 43.0915 58.8121 41.811C56.6627 40.3247 55.1764 37.7866 54.3532 34.1509L60.4584 32.5274C60.8929 34.311 61.3273 35.5 61.716 36.0716C62.5621 37.2835 63.7282 37.9009 65.2374 37.9009C66.6322 37.9009 67.7526 37.4207 68.6215 36.4375C69.3532 35.6143 69.7191 34.6768 69.7191 33.625C69.7191 32.9848 69.559 32.436 69.216 32.0015C68.6901 31.2927 67.4554 30.5838 65.5118 29.8521L62.7679 28.8003C58.0804 27.0168 55.7252 24.1814 55.7252 20.2942C55.7252 17.6189 56.7084 15.4009 58.6978 13.6402C60.6414 11.9253 63.0651 11.0564 65.9234 11.0564C69.0789 11.0564 71.6856 12.1997 73.7435 14.5091C74.3609 15.1951 75.024 16.1098 75.7099 17.2302ZM86.1139 11.7881V43H80.1231V11.7881H86.1139ZM90.8471 53.9299L96.152 41.9482L87.9432 22.2378H94.3685L99.399 34.6311L104.91 22.2378H111.312L97.1581 53.9299H90.8471ZM113.873 11.7881H130.748V17.5503H120.115V24.2957H129.811V30.0808H120.115V43H113.873V11.7881ZM143.736 21.5061C146.983 21.5061 149.704 22.7409 151.922 25.1875C153.774 27.2683 154.711 29.7378 154.711 32.596C154.711 35.9345 153.5 38.7012 151.099 40.8735C148.995 42.7713 146.48 43.7317 143.553 43.7317C140.169 43.7317 137.379 42.497 135.184 40.0503C133.332 37.9695 132.394 35.4543 132.394 32.5274C132.394 29.2805 133.606 26.5595 136.007 24.3643C138.088 22.4665 140.672 21.5061 143.736 21.5061ZM143.507 26.9253C142.57 26.9253 141.678 27.1768 140.878 27.657C139.254 28.6402 138.431 30.2637 138.431 32.5503C138.431 34.5396 139.003 36.0259 140.169 37.0549C141.129 37.9009 142.25 38.3125 143.553 38.3125C145.062 38.3125 146.32 37.7866 147.303 36.7119C148.218 35.7058 148.675 34.3338 148.675 32.5732C148.675 30.6524 148.103 29.189 146.937 28.1829C146 27.3369 144.856 26.9253 143.507 26.9253ZM177.623 22.2378L169.872 32.253L178.172 43H170.992L166.282 36.8262L161.571 43H154.368L162.692 32.2759L154.94 22.2378H162.143L166.304 27.7256L170.489 22.2378H177.623Z" fill="#1D2129"/>
<path d="M167.077 13.0229H171.486V14.1128H169.866V18.4878H168.696V14.1128H167.077V13.0229ZM176.494 13.0229H177.477V18.4878H176.315V15.0732L174.714 17.4131L173.121 15.0732V18.4878H171.962V13.0229H172.938L174.714 15.6143L176.494 13.0229Z" fill="#F46B78"/>
</svg>
